<?xml version="1.0" encoding="UTF-8"?>
<svg id="uuid-b382b535-de08-4a17-8ac1-2c92422ba056" data-name="图层 1" xmlns="http://www.w3.org/2000/svg" viewBox="0 0 1803 656">
  <rect y="0" width="1803" height="656" rx="328" ry="328" style="fill: #ff9eaa; stroke-width: 0px;"/>
  <g>
    <path d="M231.17,150.45h107.27c47.4,0,83.43,13.15,108.09,39.46,23.56,24.94,35.35,60.69,35.35,107.27s-11.78,82.06-35.35,107.27c-24.66,26.3-60.69,39.46-108.09,39.46h-107.27V150.45ZM279.26,191.55v211.25h50.14c36.44,0,63.15-8.49,80.15-25.48,16.44-17.26,24.66-43.98,24.66-80.15s-8.22-64.12-24.66-80.56c-16.72-16.71-43.43-25.07-80.15-25.07h-50.14Z" style="fill: #fff; stroke-width: 0px;"/>
    <path d="M699.29,257.31c19.45,21.1,29.18,47.95,29.18,80.56s-9.59,58.91-28.77,79.73c-19.73,21.37-45.76,32.06-78.09,32.06s-58.36-10.69-78.09-32.06c-19.18-20.27-28.77-46.85-28.77-79.73s9.72-60.01,29.18-80.56c19.18-21.1,45.07-31.65,77.68-31.65s58.22,10.55,77.68,31.65ZM576.4,286.9c-9.04,13.15-13.56,30.14-13.56,50.96s4.52,37.4,13.56,50.55c10.69,15.35,25.75,23.02,45.21,23.02s34.52-7.67,45.21-23.02c9.31-13.97,13.97-30.83,13.97-50.55s-4.66-37.54-13.97-50.96c-10.42-15.34-25.48-23.02-45.21-23.02s-34.8,7.67-45.21,23.02Z" style="fill: #fff; stroke-width: 0px;"/>
    <path d="M959.04,312.79v131.11h-46.85v-127c0-34.79-16.03-52.2-48.09-52.2-11.51,0-21.65,4.11-30.41,12.33-9.86,9.04-15.62,22.06-17.26,39.05v127.82h-46.85v-212.49h46.85v24.66c8.49-10.13,17.81-17.67,27.95-22.6,10.41-5.2,22.05-7.81,34.94-7.81,53.15,0,79.73,29.05,79.73,87.13Z" style="fill: #fff; stroke-width: 0px;"/>
    <path d="M1174.4,249.09c13.15,13.43,19.73,33.16,19.73,59.18v135.63h-43.57v-27.95c-8.22,10.69-18.49,18.91-30.82,24.66-14.25,6.02-30.14,9.04-47.68,9.04-21.93,0-39.32-5.62-52.2-16.85-13.15-11.51-19.73-26.85-19.73-46.03,0-26.57,10.41-46.44,31.24-59.6,17.53-11.23,40.69-16.85,69.46-16.85l46.44-.41v-4.93c0-27.67-15.21-41.51-45.62-41.51-13.97,0-24.94,2.61-32.88,7.81-9.04,5.75-14.38,14.53-16.03,26.3h-46.44c3.29-25.75,14.11-44.52,32.47-56.31,15.62-10.41,37.67-15.62,66.17-15.62,31.51,0,54.66,7.81,69.46,23.43ZM1147.28,345.67l-43.16.41c-37.27,0-55.89,13.15-55.89,39.46,0,7.4,2.88,13.84,8.63,19.32,6.02,5.21,14.65,7.81,25.89,7.81,19.45,0,35.21-5.2,47.27-15.62,11.51-10.69,17.26-24.93,17.26-42.74v-8.63Z" style="fill: #fff; stroke-width: 0px;"/>
    <path d="M1310.03,162.78v68.64h47.26v38.63h-47.26v120.01c0,5.21,1.09,9.04,3.29,11.51,2.47,2.47,6.02,3.7,10.69,3.7h27.95v38.63h-35.76c-18.36,0-31.92-4.93-40.69-14.8-8.22-9.04-12.33-22.05-12.33-39.04v-120.01h-38.22v-38.63h38.22v-49.32l46.86-19.32Z" style="fill: #fff; stroke-width: 0px;"/>
    <path d="M1562.79,261.01c16.99,21.65,25.48,51.52,25.48,89.6h-159.06c1.64,20,6.99,35.08,16.03,45.21,9.04,10.42,22.05,15.62,39.04,15.62,14.24,0,25.89-3.29,34.94-9.86,6.85-5.2,13.15-13.83,18.91-25.89h46.85c-4.93,20-14.8,36.58-29.59,49.73-19.18,16.17-42.74,24.25-70.69,24.25-31.51,0-56.58-9.72-75.21-29.18-19.73-20.27-29.59-47.95-29.59-83.02,0-31.78,9.31-58.22,27.95-79.32,18.08-21.64,43.01-32.47,74.8-32.47,35.07,0,61.79,11.78,80.14,35.35ZM1447.3,277.04c-8.5,8.5-14.25,21.24-17.26,38.22h109.33c-4.11-34.25-22.61-51.38-55.48-51.38-15.62,0-27.81,4.39-36.58,13.15Z" style="fill: #fff; stroke-width: 0px;"/>
  </g>
</svg>